HIERARCHY
ROOT Hips
{
    OFFSET 0.000000 0.000000 0.000000
    CHANNELS 6 Xposition Yposition Zposition Zrotation Xrotation Yrotation
    JOINT Spine
    {
        OFFSET -0.000000 6.993131 0.000000
        CHANNELS 3 Zrotation Xrotation Yrotation
        JOINT Spine1
        {
            OFFSET -0.000000 20.649729 0.000000
            CHANNELS 3 Zrotation Xrotation Yrotation
            JOINT Neck
            {
                OFFSET -0.000000 20.564924 1.869539
                CHANNELS 3 Zrotation Xrotation Yrotation
                JOINT Head
                {
                    OFFSET -0.000000 11.939490 -1.705642
                    CHANNELS 3 Zrotation Xrotation Yrotation
                    End Site
                    {
                        OFFSET -0.000000 21.320518 0.000000
                    }
                }
            }
            JOINT LeftShoulder
            {
                OFFSET 3.446977 19.850397 -0.038759
                CHANNELS 3 Zrotation Xrotation Yrotation
                JOINT LeftArm
                {
                    OFFSET 7.083611 0.000000 0.000000
                    CHANNELS 3 Zrotation Xrotation Yrotation
                    JOINT LeftForeArm
                    {
                        OFFSET 32.044487 0.000000 0.000000
                        CHANNELS 3 Zrotation Xrotation Yrotation
                        JOINT LeftHand
                        {
                            OFFSET 22.068741 0.000000 0.000000
                            CHANNELS 3 Zrotation Xrotation Yrotation
                            End Site
                            {
                                OFFSET 12.792312 0.000000 0.000000
                            }
                        }
                    }
                }
            }
            JOINT RightShoulder
            {
                OFFSET -3.365844 19.850397 -0.038759
                CHANNELS 3 Zrotation Xrotation Yrotation
                JOINT RightArm
                {
                    OFFSET -7.083611 0.000000 0.000000
                    CHANNELS 3 Zrotation Xrotation Yrotation
                    JOINT RightForeArm
                    {
                        OFFSET -32.044487 0.000000 0.000000
                        CHANNELS 3 Zrotation Xrotation Yrotation
                        JOINT RightHand
                        {
                            OFFSET -22.068741 0.000000 0.000000
                            CHANNELS 3 Zrotation Xrotation Yrotation
                            End Site
                            {
                                OFFSET -12.792312 0.000000 0.000000
                            }
                        }
                    }
                }
            }
        }
    }
    JOINT LeftUpLeg
    {
        OFFSET 8.528208 0.000000 0.000000
        CHANNELS 3 Zrotation Xrotation Yrotation
        JOINT LeftLeg
        {
            OFFSET -0.000000 -31.874865 0.000000
            CHANNELS 3 Zrotation Xrotation Yrotation
            JOINT LeftFoot
            {
                OFFSET -0.000000 -38.221939 0.000000
                CHANNELS 3 Zrotation Xrotation Yrotation
                JOINT LeftToeBase
                {
                    OFFSET -0.000000 -5.543335 12.792312
                    CHANNELS 3 Zrotation Xrotation Yrotation
                    End Site
                    {
                        OFFSET -0.000000 0.000000 3.411283
                    }
                }
            }
        }
    }
    JOINT RightUpLeg
    {
        OFFSET -8.528208 0.000000 0.000000
        CHANNELS 3 Zrotation Xrotation Yrotation
        JOINT RightLeg
        {
            OFFSET -0.000000 -31.874865 0.000000
            CHANNELS 3 Zrotation Xrotation Yrotation
            JOINT RightFoot
            {
                OFFSET -0.000000 -38.221939 0.000000
                CHANNELS 3 Zrotation Xrotation Yrotation
                JOINT RightToeBase
                {
                    OFFSET -0.000000 -5.543335 12.792312
                    CHANNELS 3 Zrotation Xrotation Yrotation
                    End Site
                    {
                        OFFSET -0.000000 0.000000 3.411283
                    }
                }
            }
        }
    }
}
MOTION
Frames:    13
Frame Time:    0.008333
66.434113    120.342087    25.473993    -5.177484    -2.256904    89.777634    3.305928    -3.376186    -1.670579    -10.843573    2.879404    -1.494685    5.420294    9.943275    1.858484    -0.733323    20.296415    1.644020    6.507719    9.858918    -1.775169    -66.637733    59.343712    -4.319510    2.308299    -21.702311    -39.640072    6.340643    -20.674133    4.887073    12.636155    13.130160    1.890878    29.528570    60.206093    30.184406    -8.015758    -5.164083    29.387009    6.025436    -3.161609    -1.846804    -4.252898    -11.970232    1.994474    3.541908    17.613535    8.080039    1.684703    -7.185644    -4.963867    0.000000    0.000000    0.000000    -7.003256    -10.590485    -1.037406    8.687187    16.227272    0.624330    -3.794065    -11.854651    -6.551691    0.000000    0.000000    0.000000    
66.399925    120.355247    25.495533    -5.294171    -2.184836    89.939438    3.150767    -3.329088    -1.706270    -10.679610    2.540309    -1.560394    5.384499    10.161720    1.818332    -0.715171    20.159000    1.613514    6.366745    9.891525    -1.933614    -66.828438    59.225567    -3.959726    2.314451    -21.619505    -39.802811    6.145964    -20.596296    4.820925    12.618554    13.179817    1.866237    29.673933    60.213528    29.860033    -8.322157    -4.935806    29.651367    6.386628    -2.826160    -1.646336    -4.283926    -12.127215    1.899702    3.525166    17.652349    8.180341    1.045378    -7.202895    -5.338795    0.000000    0.000000    0.000000    -7.107161    -10.634685    -1.259338    8.722239    16.147388    0.533347    -3.669618    -11.895976    -6.456444    0.000000    0.000000    0.000000    
66.460022    120.323494    25.589857    -5.313327    -2.292809    89.775482    3.064204    -3.464103    -1.553501    -10.459064    2.575506    -1.410445    5.672174    10.264769    1.764576    -1.073480    19.900536    1.556770    6.410868    9.883270    -2.038397    -66.976822    59.131187    -3.819629    2.262774    -21.544353    -39.907162    6.053941    -20.545822    4.695755    12.647379    13.114246    1.723592    29.765453    60.226223    29.590330    -8.456848    -4.735869    30.021990    6.199924    -2.562094    -1.723447    -3.920850    -12.032981    2.357905    3.420482    17.593061    7.946426    0.897207    -7.592149    -5.503592    0.000000    0.000000    0.000000    -6.851818    -10.527171    -0.989356    8.670423    15.958576    0.440597    -3.674615    -12.047093    -6.432262    0.000000    0.000000    0.000000    
66.460350    120.319984    25.630096    -5.350191    -2.289281    89.834389    3.041540    -3.500735    -1.554904    -10.491108    2.587889    -1.410260    5.854865    9.957396    1.792744    -1.130918    20.181246    1.564186    6.625074    9.842608    -1.963662    -67.103149    59.167412    -3.866593    2.229087    -21.553802    -39.963715    6.104023    -20.567207    4.625586    12.718473    12.964574    1.574838    29.745188    60.322235    29.480993    -8.693265    -4.524365    30.353605    6.071932    -2.270700    -1.973316    -3.829655    -12.067236    2.446550    3.372572    17.578285    7.920598    0.711405    -7.598220    -5.688282    0.000000    0.000000    0.000000    -6.836499    -10.485979    -1.033598    8.680831    15.871681    0.420898    -3.553660    -12.099874    -6.437065    0.000000    0.000000    0.000000    
66.458961    120.305145    25.665071    -5.407660    -2.269060    89.929253    2.944594    -3.518967    -1.562502    -10.396063    2.462452    -1.428980    5.956468    10.144514    1.724296    -1.173848    19.880768    1.495369    6.675726    9.855723    -2.012872    -67.213913    59.142242    -3.812244    2.159881    -21.571135    -39.993610    6.249427    -20.601910    4.629149    12.783560    12.902782    1.457030    29.831861    60.313328    29.196796    -8.842353    -4.272007    30.656927    6.033269    -1.960878    -2.155588    -3.786346    -12.130807    2.470921    3.343017    17.582602    7.828979    0.596695    -7.620593    -5.787631    0.000000    0.000000    0.000000    -6.855127    -10.459652    -1.120605    8.692662    15.777605    0.450178    -3.468111    -12.188373    -6.447172    0.000000    0.000000    0.000000    
66.457664    120.278862    25.701084    -5.460560    -2.243605    90.010757    2.895273    -3.548332    -1.586182    -10.390501    2.365248    -1.460783    5.828007    10.057176    1.721990    -0.805366    20.084377    1.484923    6.783398    9.875046    -1.992171    -67.306557    59.055603    -3.842103    2.088957    -21.533392    -39.957500    6.424637    -20.582870    4.614994    12.858676    12.858120    1.372400    29.873165    60.311798    28.995111    -8.993513    -4.082938    30.897261    6.200209    -1.717585    -2.249273    -3.753425    -12.179265    2.485953    3.301109    17.571169    7.718795    0.545003    -7.725218    -5.808496    0.000000    0.000000    0.000000    -6.874642    -10.446179    -1.145542    8.697685    15.710283    0.450773    -3.395292    -12.342465    -6.454815    0.000000    0.000000    0.000000    
66.456833    120.246956    25.726625    -5.500708    -2.173935    90.134300    2.780691    -3.567657    -1.620312    -10.336878    2.272668    -1.501345    5.914840    10.122755    1.694002    -0.842342    19.979809    1.454739    6.882114    9.861246    -2.001762    -67.434837    59.111729    -3.842719    2.038590    -21.569653    -39.880585    6.549573    -20.640551    4.478222    12.913845    12.838297    1.263291    29.903044    60.309715    28.833216    -9.151220    -3.997069    31.053860    6.636444    -1.585841    -2.302232    -3.814964    -12.211032    2.479020    3.308955    17.547680    7.520426    0.507879    -7.808812    -5.726584    0.000000    0.000000    0.000000    -6.959182    -10.422232    -1.244179    8.706023    15.660327    0.446390    -3.370982    -12.538815    -6.446865    0.000000    0.000000    0.000000    
66.470810    120.209801    25.771793    -5.494787    -2.156533    90.192070    2.659879    -3.547302    -1.592241    -10.222127    2.154015    -1.481966    6.092020    10.225131    1.633084    -0.972353    19.907145    1.390678    6.892858    9.916253    -2.089443    -67.365135    59.238106    -4.010567    2.114163    -21.632446    -39.658665    6.555110    -20.689711    4.337906    13.022954    12.822851    1.057363    29.916740    60.300774    28.650444    -9.279761    -3.976872    31.182877    7.257805    -1.527173    -2.243567    -3.786162    -12.164714    2.535524    3.297918    17.476120    7.283939    0.535385    -7.998283    -5.628540    0.000000    0.000000    0.000000    -6.936591    -10.359887    -1.179759    8.687186    15.603467    0.323935    -3.286860    -12.731455    -6.389613    0.000000    0.000000    0.000000    
66.489136    120.174858    25.796356    -5.430853    -2.093479    90.292900    2.562364    -3.495682    -1.601090    -10.173053    2.092327    -1.493064    6.186376    10.285759    1.585061    -1.043275    19.859245    1.340711    6.796026    10.016562    -2.121749    -67.108131    59.438625    -4.180687    2.233902    -21.716459    -39.621471    6.614489    -20.723845    4.498579    13.131567    12.864633    0.902766    29.902420    60.148113    28.525593    -9.280578    -3.941684    31.255991    7.873977    -1.487784    -2.103827    -3.858215    -12.001705    2.432495    3.291442    17.396860    7.415770    0.532322    -8.229976    -5.673174    0.000000    0.000000    0.000000    -7.002931    -10.226326    -1.149650    8.710125    15.556041    0.229039    -3.236198    -12.926620    -6.376783    0.000000    0.000000    0.000000    
66.499039    120.137115    25.840548    -5.395798    -2.097866    90.377518    2.440837    -3.445146    -1.549556    -10.009526    1.989231    -1.448785    6.188293    10.273436    1.444683    -0.869376    19.981314    1.188857    6.734376    10.042395    -2.251992    -67.009933    59.460239    -4.316570    2.258912    -21.701405    -39.440887    6.722304    -20.704704    4.414192    13.264972    12.842532    0.654649    29.946289    60.169865    28.339737    -9.262131    -4.080318    31.242630    8.013535    -1.651357    -2.328488    -3.830566    -11.922136    2.479182    3.308831    17.361794    7.272896    0.488174    -8.501618    -5.655358    0.000000    0.000000    0.000000    -6.962732    -10.145097    -1.077866    8.698472    15.521523    0.117612    -2.936829    -13.072826    -6.349540    0.000000    0.000000    0.000000    
66.455124    120.095657    25.884527    -5.472159    -2.011027    90.405602    2.238610    -3.409731    -1.494321    -9.860762    1.819221    -1.404017    6.477567    10.570752    1.360421    -1.240782    19.524496    1.110052    6.686427    10.026864    -2.378058    -66.875557    59.491665    -4.462688    2.321441    -21.573721    -39.244083    6.621379    -20.552612    4.605650    13.395502    12.857484    0.455381    29.999727    60.037006    28.169420    -9.051520    -4.163764    31.257437    7.931534    -1.803306    -2.501544    -3.896999    -12.032849    2.494289    3.322137    17.395502    7.254420    0.435966    -8.712429    -5.678618    0.000000    0.000000    0.000000    -7.021487    -10.308517    -0.980954    8.710814    15.632746    -0.000390    -3.243878    -13.327143    -6.369732    0.000000    0.000000    0.000000    
66.442406    120.060440    25.920597    -5.447091    -1.987018    90.454277    2.201171    -3.325044    -1.455436    -9.852626    1.685506    -1.374079    6.661550    10.545601    1.251332    -1.430407    19.633461    0.992146    6.684932    10.078939    -2.435648    -66.838409    59.562084    -4.649351    2.583385    -21.587948    -38.865768    6.424973    -20.509268    4.350939    13.490174    12.848650    0.259803    30.069124    60.009651    28.085846    -8.940196    -4.250250    31.155998    8.189735    -1.922000    -2.311719    -3.931238    -12.006186    2.469620    3.368739    17.394745    7.273408    0.310192    -8.903522    -5.743968    0.000000    0.000000    0.000000    -7.024923    -10.311938    -0.930934    8.682425    15.711774    -0.047409    -3.087584    -13.499189    -6.304711    0.000000    0.000000    0.000000    
66.426575    120.026466    25.958597    -5.425805    -1.966440    90.490242    2.122720    -3.253786    -1.400272    -9.775391    1.576865    -1.325718    6.890719    10.432981    1.257873    -1.652210    19.862133    0.989942    6.650771    10.083324    -2.480330    -66.427376    59.248001    -5.053903    2.158718    -21.153481    -38.807709    6.651402    -20.212034    4.230327    13.637872    12.861573    0.049562    30.006765    60.003006    28.035480    -8.868911    -4.377532    31.136721    8.154884    -2.083048    -2.489372    -4.012250    -11.992079    2.545060    3.551342    17.392597    7.237647    0.146126    -9.068507    -5.892744    0.000000    0.000000    0.000000    -7.020120    -10.340876    -0.964824    8.709840    15.804807    -0.134350    -3.010488    -13.628541    -6.310492    0.000000    0.000000    0.000000    
